# xmcd
#
# Track frame offsets:
#	150
#	22785
#	46822
#	64502
#	82272
#	99382
#	118222
#	133997
#	156270
#	176732
#	206737
#
# Disc length: 3096 seconds
#
# Revision: 9
# Processed by: cddbd v1.5.1PL0 Copyright (c) Steve Scherf et al.
# Submitted via: EasyCDDAExtractor 6.0.0.1
#
DISCID=970c160b
DTITLE=Supercar - Jump Up
DYEAR=1999
DGENRE=Japanese Pop
TTITLE0=Walk Slowly
TTITLE1=Sunday People
TTITLE2=Jump
TTITLE3=My Girl
TTITLE4=Wonderful World
TTITLE5=Love Forever
TTITLE6=Tonight
TTITLE7=Skyphone Speaker
TTITLE8=Low-down (Live Scene)
TTITLE9=Talk Talk
TTITLE10=Daydreamer
EXTD=
EXTT0=
EXTT1=
EXTT2=
EXTT3=
EXTT4=
EXTT5=
EXTT6=
EXTT7=
EXTT8=
EXTT9=
EXTT10=
PLAYORDER=
